{"glyphs":{"$":{"x_min":0,"x_max":506,"ha":506,"o":"m 430 528 q 430 500 418 484 q 406 467 382 467 q 359 467 337 483 q 348 500 348 522 q 348 545 330 562 q 313 580 283 585 l 283 384 q 402 334 428 275 q 440 246 440 208 q 440 136 398 90 q 356 44 283 34 l 283 -58 l 277 -64 q 261 -64 243 -59 l 243 32 q 157 32 108 66 q 59 99 59 158 q 59 180 75 194 q 91 209 116 209 q 142 209 157 191 q 151 172 151 156 q 151 123 176 102 q 202 80 243 79 l 243 303 q 210 317 195 324 q 180 330 153 346 q 126 363 114 379 q 79 423 79 484 q 79 544 125 587 q 171 630 243 634 l 243 726 l 249 732 q 271 732 283 728 l 283 633 q 346 627 388 597 q 430 567 430 528 z m 161 489 q 161 459 182 439 q 203 419 243 401 l 243 586 q 161 578 161 489 z m 358 180 q 358 243 283 284 l 283 83 q 358 100 358 180 z"},"<":{"x_min":0,"x_max":554,"ha":554,"o":"m 64 260 l 64 312 l 447 493 l 472 442 l 143 286 l 472 129 l 447 79 z"},"'":{"x_min":0,"x_max":237,"ha":237,"o":"m 97 467 q 73 599 73 624 q 73 649 86 662 q 98 674 118 674 q 139 674 152 662 q 165 649 165 632 q 165 603 147 501 l 141 467 z"},"=":{"x_min":0,"x_max":554,"ha":554,"o":"m 62 187 l 62 240 l 492 240 l 492 187 z m 62 331 l 62 383 l 492 383 l 492 331 z"},"a":{"x_min":0,"x_max":488,"ha":488,"o":"m 174 -7 q 112 -7 78 23 q 44 53 44 112 q 44 172 92 210 q 140 247 231 253 l 313 259 l 313 340 q 313 390 292 413 q 271 436 224 436 q 141 436 141 391 q 141 365 171 354 q 171 306 114 306 q 88 306 72 322 q 56 338 56 364 q 56 415 102 446 q 147 476 226 476 q 306 476 352 440 q 398 404 398 340 l 398 61 q 421 44 468 34 l 464 0 l 326 0 l 316 45 q 260 -7 174 -7 z m 132 116 q 132 34 199 34 q 252 34 313 92 l 313 218 l 233 211 q 186 207 159 182 q 132 156 132 116 z"},"L":{"x_min":0,"x_max":537,"ha":537,"o":"m 233 58 l 420 58 q 450 102 463 171 q 470 174 480 174 q 491 174 503 171 l 494 0 l 48 0 l 54 37 q 113 44 144 64 l 144 604 q 107 624 48 631 q 49 643 53 667 l 330 667 l 325 631 q 270 624 233 604 z"},"3":{"x_min":0,"x_max":554,"ha":554,"o":"m 214 328 l 214 372 q 373 377 373 508 q 373 563 348 592 q 324 621 280 621 q 235 621 208 598 q 182 575 182 544 q 182 513 193 499 q 169 481 144 481 q 120 481 108 498 q 95 516 95 546 q 95 599 148 635 q 202 671 282 671 q 363 671 414 626 q 465 581 465 508 q 465 393 334 351 q 473 314 473 181 q 473 98 416 46 q 360 -7 268 -7 q 177 -7 124 30 q 70 66 70 130 q 70 155 86 170 q 102 186 127 186 q 152 186 175 169 q 167 147 167 127 q 167 88 196 65 q 226 42 276 42 q 327 42 356 80 q 385 117 385 184 q 385 251 340 290 q 295 328 214 328 z"},"J":{"x_min":0,"x_max":307,"ha":307,"o":"m 198 16 q 198 -72 148 -122 q 97 -173 3 -198 l -8 -168 q 46 -143 78 -104 q 110 -66 110 1 l 110 604 q 71 624 12 631 l 17 667 l 294 667 q 293 655 289 631 q 233 624 198 604 z"},"V":{"x_min":0,"x_max":604,"ha":604,"o":"m 596 667 l 590 631 q 556 625 528 605 l 332 0 l 284 0 l 68 604 q 47 622 7 631 l 12 667 l 254 667 l 248 631 q 196 624 162 604 l 319 153 l 462 604 q 422 625 371 631 q 375 655 376 667 z"},"\"":{"x_min":0,"x_max":393,"ha":393,"o":"m 97 471 q 73 603 73 628 q 73 653 86 666 q 98 678 118 678 q 139 678 152 666 q 165 653 165 636 q 165 607 147 505 l 141 471 z m 257 471 q 233 603 233 628 q 233 653 246 666 q 258 678 278 678 q 299 678 312 666 q 325 653 325 636 q 325 607 307 505 l 301 471 z"},"7":{"x_min":0,"x_max":554,"ha":554,"o":"m 134 486 q 128 484 118 484 q 109 484 93 486 q 93 488 86 558 q 78 629 78 653 l 92 668 q 182 667 283 667 l 493 668 l 511 625 l 228 0 l 152 0 l 430 594 l 155 594 q 137 543 134 486 z"},"S":{"x_min":0,"x_max":496,"ha":496,"o":"m 462 176 q 462 92 400 42 q 338 -7 233 -7 q 190 -7 134 9 q 79 25 52 45 l 52 209 q 74 214 101 214 q 113 118 137 66 q 183 43 242 43 q 302 43 336 75 q 371 107 371 154 q 371 202 338 234 q 306 267 260 290 q 214 312 168 337 q 122 362 90 404 q 57 447 57 505 q 57 581 112 628 q 168 676 257 676 q 371 676 442 631 l 427 497 q 415 494 404 494 q 393 494 384 497 q 369 567 340 596 q 311 625 258 625 q 206 625 174 598 q 142 570 142 527 q 142 484 175 451 q 208 418 255 394 q 302 371 349 346 q 396 320 429 277 q 462 234 462 176 z"},"}":{"x_min":0,"x_max":387,"ha":387,"o":"m 244 18 q 244 -49 192 -96 q 140 -142 70 -142 l 70 -107 q 118 -105 144 -70 q 170 -36 170 2 q 170 39 161 86 q 152 134 152 163 q 152 245 198 284 q 152 323 152 404 q 152 433 161 480 q 170 528 170 566 q 170 603 144 637 q 118 671 70 675 l 70 708 q 140 708 192 662 q 244 616 244 549 q 244 527 231 462 q 218 396 218 376 q 218 356 223 342 q 228 329 235 322 q 249 306 267 301 l 267 267 q 249 263 234 242 q 218 221 218 196 q 218 171 231 105 q 244 39 244 18 z"},"Z":{"x_min":0,"x_max":538,"ha":538,"o":"m 98 502 l 77 501 q 65 501 60 502 l 48 648 l 74 672 q 194 667 274 667 q 355 667 490 672 l 499 632 l 144 52 q 171 51 256 51 q 341 51 389 52 q 436 108 455 181 q 467 183 476 183 q 484 183 498 181 l 489 -3 q 420 0 244 0 q 69 0 41 -4 l 38 46 l 384 615 l 345 616 l 295 616 q 236 616 146 614 q 112 584 98 502 z"},"x":{"x_min":0,"x_max":483,"ha":483,"o":"m -3 0 l 0 36 q 54 41 73 62 l 200 229 l 73 402 q 52 431 11 437 l 14 467 l 229 467 l 224 437 q 188 434 163 416 l 255 292 l 343 409 q 313 432 276 437 l 279 467 l 480 467 l 476 437 q 421 430 402 405 l 285 250 l 424 62 q 443 42 483 37 l 479 0 l 263 0 l 267 36 q 313 41 330 53 l 230 188 l 131 56 q 150 41 198 36 l 195 0 z"},")":{"x_min":0,"x_max":382,"ha":382,"o":"m 73 -119 q 222 37 222 282 q 222 528 73 685 l 98 710 q 106 704 119 693 q 132 682 166 642 q 200 602 226 556 q 252 511 273 436 q 294 362 294 282 q 294 202 274 128 q 254 55 225 7 q 166 -91 118 -129 l 98 -145 z"},"&":{"x_min":0,"x_max":687,"ha":687,"o":"m 44 196 q 44 339 182 386 q 97 424 97 518 q 97 594 150 632 q 203 670 282 670 q 362 670 412 638 q 463 607 463 552 q 463 522 448 504 q 432 486 406 486 q 380 486 362 512 q 376 534 376 553 q 376 631 284 631 q 236 631 210 601 q 183 571 183 524 q 183 476 210 444 q 237 413 296 412 l 296 364 q 223 355 180 312 q 136 268 136 195 q 136 122 184 82 q 231 42 318 42 q 404 42 466 95 q 527 148 527 251 q 527 315 504 384 q 429 380 429 335 q 429 311 449 294 q 430 275 406 275 q 383 275 369 292 q 355 309 355 335 q 355 426 514 426 q 568 426 592 438 q 617 449 617 475 q 617 501 598 518 q 617 537 640 537 q 663 537 677 522 q 691 506 691 481 q 691 388 552 385 q 581 315 581 237 q 581 120 508 56 q 434 -8 310 -8 q 185 -8 114 46 q 44 100 44 196 z"},"_":{"x_min":0,"x_max":371,"ha":371,"o":"m 371 -112 l 0 -112 l 0 -58 l 371 -58 z"},"v":{"x_min":0,"x_max":504,"ha":504,"o":"m 215 0 l 70 395 q 59 425 -1 437 l 1 467 l 224 467 l 221 437 q 177 431 159 415 l 265 96 l 371 415 q 350 430 311 437 l 314 467 l 504 467 l 501 437 q 441 425 434 407 l 282 0 z"},"(":{"x_min":0,"x_max":382,"ha":382,"o":"m 157 558 q 218 657 264 694 l 284 710 l 309 685 q 160 529 160 283 q 160 37 309 -119 l 284 -145 q 256 -124 219 -81 q 182 -38 156 8 q 130 53 109 128 q 88 202 88 282 q 88 362 108 436 q 128 510 157 558 z"},"C":{"x_min":0,"x_max":562,"ha":562,"o":"m 312 -7 q 180 -7 117 76 q 54 159 54 334 q 54 508 118 592 q 181 676 313 676 q 399 676 456 638 q 512 601 512 544 q 512 511 495 488 q 478 465 456 465 q 434 465 418 476 q 402 487 396 504 q 415 530 415 558 q 415 585 387 604 q 359 622 313 622 q 232 622 193 552 q 154 481 154 335 q 154 189 192 121 q 231 53 313 53 q 365 53 414 78 q 464 102 489 135 l 524 97 q 515 85 490 64 q 466 43 443 29 q 384 -7 312 -7 z"},"W":{"x_min":0,"x_max":921,"ha":921,"o":"m 901 667 l 895 631 q 862 625 835 606 l 662 0 l 614 0 l 460 462 l 320 0 l 272 0 l 80 605 q 58 622 20 631 l 24 667 l 267 667 l 261 631 q 209 624 175 604 l 307 159 l 456 667 l 488 667 l 648 161 l 767 604 q 727 625 676 631 l 681 667 z"},"A":{"x_min":0,"x_max":623,"ha":623,"o":"m 13 0 l 18 37 q 63 44 89 63 l 276 667 l 336 667 l 542 62 q 567 44 608 37 l 604 0 l 354 0 l 359 37 q 417 44 451 64 l 400 215 l 198 215 l 152 64 q 185 45 249 37 l 245 0 z m 295 528 l 214 267 l 383 267 z"},"f":{"x_min":0,"x_max":303,"ha":303,"o":"m 171 590 l 183 470 l 287 470 l 287 417 l 183 417 l 183 62 q 206 45 264 34 l 261 0 l 28 0 l 32 36 q 74 43 98 62 l 98 417 l 24 417 l 19 452 q 71 457 98 470 l 98 524 q 98 607 134 658 q 171 709 247 709 q 323 709 362 684 l 362 588 l 307 588 q 295 672 239 672 q 208 672 190 650 q 171 629 171 590 z"},"Q":{"x_min":0,"x_max":653,"ha":653,"o":"m 385 -2 q 403 -49 444 -86 q 485 -122 539 -140 l 539 -146 q 539 -161 529 -170 q 375 -144 304 -6 q 170 0 112 88 q 53 175 53 338 q 53 500 116 588 q 180 676 326 676 q 473 676 536 588 q 600 499 600 342 q 600 186 550 100 q 499 15 385 -2 z m 452 568 q 410 626 327 626 q 219 626 184 536 q 154 460 154 334 q 154 210 184 132 q 201 88 237 65 q 273 42 322 42 q 371 42 402 58 q 434 74 452 100 q 471 125 482 165 q 492 205 496 244 q 499 282 499 333 q 499 384 496 423 q 492 462 482 502 q 471 542 452 568 z"},"w":{"x_min":0,"x_max":774,"ha":774,"o":"m 219 0 l 81 395 q 70 425 10 437 l 12 467 l 235 467 l 232 437 q 188 431 170 415 l 266 104 l 378 450 l 417 450 l 539 103 l 632 415 q 613 430 573 437 l 576 467 l 765 467 l 762 437 q 702 425 695 407 l 552 0 l 491 0 l 384 291 l 281 0 z"},"-":{"x_min":0,"x_max":332,"ha":332,"o":"m 52 231 l 52 285 l 281 285 l 281 231 z"},"E":{"x_min":0,"x_max":575,"ha":575,"o":"m 490 515 q 477 510 467 510 q 457 510 447 512 q 434 578 405 614 l 217 614 l 217 364 l 330 369 q 369 370 386 436 l 418 436 l 418 238 l 386 238 q 381 262 376 274 q 371 286 358 298 q 346 311 329 312 l 217 318 l 217 58 l 430 58 q 460 100 473 171 q 485 173 491 173 q 497 173 513 171 l 504 0 l 31 0 l 37 37 q 104 45 129 64 l 129 604 q 91 624 31 631 q 35 655 36 667 l 482 667 z"},"s":{"x_min":0,"x_max":430,"ha":430,"o":"m 380 136 q 380 69 333 32 q 286 -6 201 -6 q 166 -6 120 6 q 75 17 52 32 l 52 155 l 105 162 q 111 89 132 49 q 164 39 207 39 q 250 39 276 61 q 302 83 302 114 q 302 146 276 165 q 251 184 214 196 q 178 207 141 222 q 104 236 78 268 q 53 299 53 353 q 53 407 98 441 q 142 475 226 475 q 309 475 363 449 l 354 329 l 302 329 q 298 382 279 408 q 260 435 217 435 q 174 435 151 417 q 128 399 128 368 q 128 337 154 317 q 180 297 217 284 q 254 272 291 258 q 328 243 354 212 q 380 182 380 136 z"},">":{"x_min":0,"x_max":554,"ha":554,"o":"m 485 312 l 485 260 l 102 79 l 77 129 l 406 286 l 77 442 l 102 493 z"},"l":{"x_min":0,"x_max":271,"ha":271,"o":"m 93 567 q 93 604 78 618 q 63 631 23 633 l 26 663 q 62 669 159 697 l 178 687 l 178 62 q 203 43 248 35 l 244 0 l 23 0 l 27 37 q 69 43 93 62 z"},"8":{"x_min":0,"x_max":554,"ha":554,"o":"m 71 172 q 71 280 191 355 q 96 406 96 505 q 96 580 148 626 q 201 671 287 671 q 373 671 422 628 q 471 586 471 513 q 471 427 372 366 q 501 301 501 181 q 501 95 444 44 q 386 -7 286 -7 q 185 -7 128 40 q 71 86 71 172 z m 162 178 q 162 114 196 78 q 230 42 288 42 q 346 42 378 78 q 411 114 411 168 q 411 223 378 255 q 345 287 264 322 l 241 332 q 162 280 162 178 z m 314 393 l 321 389 q 385 435 385 514 q 385 562 358 592 q 330 621 283 621 q 236 621 208 593 q 181 565 181 521 q 181 477 210 451 q 238 425 314 393 z"},"\\":{"x_min":0,"x_max":490,"ha":490,"o":"m 355 -125 l 49 671 l 105 692 l 411 -104 z"},"e":{"x_min":0,"x_max":488,"ha":488,"o":"m 152 243 l 152 238 q 152 116 183 78 q 212 42 275 42 q 308 42 340 54 q 372 66 388 78 l 403 89 l 428 59 q 421 52 408 41 q 395 30 354 12 q 313 -7 271 -7 q 157 -7 108 54 q 60 116 60 232 q 60 349 114 412 q 167 476 268 476 q 368 476 408 424 q 448 372 451 270 l 430 243 z m 265 436 q 155 436 152 280 l 361 287 q 361 366 340 401 q 320 436 265 436 z"},"b":{"x_min":0,"x_max":547,"ha":547,"o":"m 298 476 q 400 476 447 412 q 494 348 494 238 q 494 128 438 60 q 382 -7 278 -7 q 215 -7 162 42 q 147 19 142 0 l 94 0 l 94 567 q 94 604 79 618 q 64 631 24 633 l 27 663 q 63 669 160 697 l 180 687 l 180 406 q 195 435 228 456 q 262 476 298 476 z m 377 394 q 352 433 306 433 q 261 433 236 414 q 211 395 200 359 q 180 298 180 205 l 180 85 q 237 35 279 35 q 321 35 346 52 q 372 70 384 102 q 395 134 399 165 q 403 196 403 234 q 403 272 402 297 q 400 322 394 350 q 388 377 377 394 z"},"m":{"x_min":0,"x_max":832,"ha":832,"o":"m 114 347 q 114 384 99 398 q 84 411 44 413 l 47 442 q 63 445 170 476 l 188 467 l 195 415 q 248 476 317 476 q 409 476 449 414 q 517 476 584 476 q 650 476 694 440 q 737 403 737 326 l 737 62 q 761 44 807 34 l 803 0 l 584 0 l 586 34 q 624 40 652 62 l 652 329 q 652 428 573 428 q 541 428 513 408 q 485 388 471 361 l 471 62 q 493 44 541 34 l 537 0 l 317 0 l 320 34 q 358 40 386 62 l 386 329 q 386 428 307 428 q 272 428 241 404 q 210 379 200 350 l 200 62 q 223 44 269 34 l 265 0 l 44 0 l 48 36 q 90 43 114 62 z"},"#":{"x_min":0,"x_max":619,"ha":619,"o":"m 302 5 l 339 174 l 215 174 l 175 -7 l 125 5 l 162 174 l 43 174 l 53 227 l 173 227 l 201 353 l 95 353 l 105 406 l 212 406 l 252 585 l 303 573 l 266 406 l 390 406 l 430 585 l 480 573 l 443 406 l 563 406 l 553 353 l 431 353 l 404 227 l 511 227 l 501 174 l 392 174 l 353 -7 z m 254 353 l 226 227 l 351 227 l 379 353 z"},",":{"x_min":0,"x_max":205,"ha":205,"o":"m 51 11 q 40 24 40 47 q 40 70 57 84 q 74 99 102 99 q 129 99 146 79 q 164 59 164 26 q 164 -71 63 -135 l 39 -106 q 59 -89 71 -64 q 83 -40 83 -13 q 83 14 63 14 q 58 14 51 11 z"},"n":{"x_min":0,"x_max":558,"ha":558,"o":"m 383 329 q 383 428 297 428 q 263 428 232 404 q 201 381 185 344 l 185 62 q 209 43 255 34 l 251 0 l 30 0 l 34 36 q 77 43 100 62 l 100 347 q 100 384 84 398 q 69 411 30 413 l 33 442 q 46 444 155 476 l 173 467 l 182 405 q 205 438 240 457 q 276 476 314 476 q 387 476 428 440 q 468 403 468 338 l 468 62 q 490 44 538 34 l 534 0 l 314 0 l 317 34 q 355 40 383 62 z"},"h":{"x_min":0,"x_max":552,"ha":552,"o":"m 94 567 q 94 604 78 618 q 63 631 24 633 l 27 663 q 63 669 160 697 l 179 687 l 179 408 q 232 476 306 476 q 381 476 422 440 q 462 403 462 338 l 462 62 q 484 44 532 34 l 528 0 l 308 0 l 311 34 q 349 40 377 62 l 377 329 q 377 428 292 428 q 257 428 226 404 q 195 381 179 344 l 179 62 q 204 43 249 35 l 245 0 l 24 0 l 28 37 q 70 43 94 62 z"},"z":{"x_min":0,"x_max":455,"ha":455,"o":"m 74 469 l 247 467 q 330 467 398 469 l 405 433 l 144 46 q 159 45 226 45 q 292 45 315 46 q 339 79 355 138 q 367 141 377 141 q 387 141 403 139 l 396 21 l 377 -3 q 338 0 235 0 l 52 -4 l 44 38 l 303 421 q 247 425 208 425 q 170 425 138 420 q 117 394 111 339 q 98 334 84 334 q 69 334 58 338 l 49 448 z"},"B":{"x_min":0,"x_max":611,"ha":611,"o":"m 305 667 q 534 667 534 501 q 534 387 417 354 q 486 334 524 292 q 562 249 562 188 q 562 101 502 50 q 441 0 332 0 l 42 0 q 43 13 47 37 q 105 44 139 64 l 139 604 q 104 624 41 631 l 46 667 z m 227 327 l 227 53 q 286 49 332 49 q 471 49 471 187 q 471 254 430 290 q 388 327 306 327 z m 304 621 q 279 621 227 617 l 227 376 l 307 376 q 379 376 413 406 q 447 436 447 499 q 447 562 412 592 q 378 621 304 621 z"},"K":{"x_min":0,"x_max":629,"ha":629,"o":"m 26 0 l 32 37 q 90 44 123 64 l 123 604 q 86 624 26 631 q 30 655 31 667 l 310 667 l 304 631 q 249 625 212 604 l 212 64 q 248 44 310 37 q 306 13 305 0 z m 416 602 q 416 629 354 631 l 360 667 l 595 667 l 591 631 q 530 627 500 599 l 314 366 l 532 64 q 561 43 617 38 l 611 0 l 451 0 q 449 27 435 48 l 222 348 l 410 582 q 416 594 416 602 z"},"R":{"x_min":0,"x_max":621,"ha":621,"o":"m 300 667 q 529 667 529 491 q 529 359 391 326 q 425 304 453 240 l 532 64 q 562 44 616 38 l 610 0 l 459 0 l 372 223 q 348 284 328 298 q 308 311 244 311 l 224 311 l 224 64 q 252 46 321 37 q 317 13 316 0 l 39 0 l 44 37 q 102 44 136 64 l 136 604 q 101 624 38 631 l 43 667 z m 299 626 q 265 626 224 619 l 224 357 l 255 357 q 439 357 439 493 q 439 626 299 626 z"},"T":{"x_min":0,"x_max":593,"ha":593,"o":"m 84 499 l 60 498 q 47 498 40 499 l 40 671 q 172 667 342 667 q 513 667 553 671 l 553 499 q 546 498 532 498 q 517 498 509 499 q 502 571 473 614 q 408 621 341 622 l 341 64 q 376 45 439 37 q 435 13 434 0 l 156 0 l 162 37 q 221 44 253 64 l 253 622 q 176 621 122 615 q 86 565 84 499 z"},"P":{"x_min":0,"x_max":568,"ha":568,"o":"m 298 667 q 520 667 520 482 q 520 378 452 336 q 384 293 254 293 l 222 293 l 222 64 q 255 45 319 37 l 315 0 l 37 0 l 43 37 q 100 44 134 64 l 134 604 q 95 624 36 631 q 40 655 41 667 z m 430 484 q 430 625 288 625 q 256 625 222 619 l 222 338 l 254 338 q 430 338 430 484 z"},"|":{"x_min":0,"x_max":316,"ha":316,"o":"m 126 -146 l 126 754 l 190 754 l 190 -146 z"},"t":{"x_min":0,"x_max":338,"ha":338,"o":"m 333 27 q 283 -10 218 -10 q 152 -10 128 18 q 104 46 104 113 l 104 413 l 23 413 l 23 443 q 120 476 151 564 l 191 564 l 191 467 l 319 467 l 319 413 l 190 413 l 190 106 q 190 69 200 53 q 209 37 243 37 q 277 37 313 57 z"},"M":{"x_min":0,"x_max":815,"ha":815,"o":"m 636 529 l 632 529 l 429 0 l 370 0 l 157 538 l 153 538 l 153 64 q 186 45 250 37 l 246 0 l -7 0 l -2 37 q 56 44 89 64 l 89 604 q 52 624 -7 631 l -3 667 l 190 667 l 414 123 l 630 667 l 821 667 q 817 643 816 631 q 761 625 724 604 l 724 64 q 757 45 821 37 l 817 0 l 539 0 q 543 27 544 37 q 601 44 636 64 z"},"y":{"x_min":0,"x_max":504,"ha":504,"o":"m 116 -95 q 104 -112 104 -128 q 104 -145 113 -154 q 122 -164 140 -164 q 177 -164 207 -73 l 228 -8 l 64 394 q 51 426 -7 436 l -5 467 l 213 467 l 210 437 q 172 434 151 415 l 267 110 l 366 415 q 344 432 307 437 l 309 467 l 504 467 l 502 437 q 436 427 429 407 l 259 -84 q 234 -157 202 -188 q 171 -218 128 -218 q 84 -218 58 -196 q 32 -175 32 -144 q 32 -114 46 -99 q 60 -84 80 -84 q 99 -84 116 -95 z"},"@":{"x_min":0,"x_max":885,"ha":885,"o":"m 277 139 q 277 261 441 275 l 511 281 l 511 349 q 511 396 494 418 q 476 439 440 439 q 405 439 386 427 q 367 415 367 394 q 367 373 396 363 q 396 314 340 314 q 315 314 300 330 q 285 346 285 370 q 285 419 327 448 q 369 476 440 476 q 512 476 554 442 q 595 409 595 349 l 595 139 q 595 75 659 75 q 701 75 725 140 q 749 205 749 298 q 749 431 674 516 q 600 602 456 602 q 311 602 226 501 q 140 400 140 252 q 140 103 222 3 q 305 -97 441 -97 q 537 -97 600 -59 l 622 -94 q 546 -142 441 -142 q 262 -142 156 -36 q 51 71 51 245 q 51 419 160 532 q 270 645 450 645 q 631 645 734 548 q 838 450 838 298 q 838 179 790 104 q 742 28 653 28 q 544 28 520 81 q 463 32 400 32 q 277 32 277 139 z m 360 147 q 360 75 416 75 q 460 75 511 126 l 511 238 l 445 233 q 406 230 383 206 q 360 182 360 147 z"},"p":{"x_min":0,"x_max":556,"ha":556,"o":"m 105 348 q 105 385 90 398 q 75 412 36 414 l 39 443 q 52 445 161 477 l 179 467 l 188 406 q 229 476 319 476 q 502 476 502 244 q 502 122 444 58 q 386 -7 276 -7 q 229 -7 191 9 l 191 -149 q 216 -168 260 -176 l 257 -210 l 36 -210 l 40 -174 q 79 -169 105 -149 z m 311 433 q 191 433 191 245 l 191 55 q 227 35 285 35 q 343 35 378 90 q 414 145 414 243 q 414 341 389 387 q 364 433 311 433 z"},"X":{"x_min":0,"x_max":571,"ha":571,"o":"m 262 667 l 256 631 q 207 624 176 604 l 298 412 l 418 604 q 387 622 338 631 q 339 643 343 667 l 560 667 l 555 631 q 519 626 491 605 l 335 355 l 523 61 q 547 44 597 37 q 593 13 592 0 l 326 0 q 330 27 331 37 q 391 37 417 63 l 277 283 l 140 61 q 158 37 233 37 l 229 0 l -25 0 q -21 27 -20 37 q 37 41 68 61 l 242 339 l 71 605 q 49 621 10 631 l 15 667 z"},"*":{"x_min":0,"x_max":427,"ha":427,"o":"m 192 408 q 179 389 162 389 q 145 389 134 400 q 123 410 123 425 q 123 440 133 450 q 143 459 164 474 q 184 489 199 512 q 171 509 142 496 q 114 484 102 484 q 89 484 79 494 q 69 505 69 521 q 69 537 79 547 q 89 557 102 557 q 114 557 142 544 q 171 531 200 528 q 185 549 164 564 q 144 580 134 590 q 123 601 123 616 q 123 630 134 640 q 145 651 164 651 q 183 651 189 638 q 195 626 199 594 q 203 563 214 538 q 230 572 234 620 q 236 651 268 651 q 284 651 294 640 q 305 630 305 612 q 305 595 275 573 q 245 551 229 529 q 255 532 284 544 q 314 557 326 557 q 339 557 350 547 q 360 537 360 521 q 360 505 350 494 q 339 484 326 484 q 313 484 284 496 q 254 509 228 512 q 244 490 264 475 q 285 460 295 450 q 305 441 305 426 q 305 410 294 400 q 283 389 264 389 q 244 389 239 400 q 234 411 231 443 q 228 475 214 504 q 202 477 199 446 q 196 415 192 408 z"},"Y":{"x_min":0,"x_max":570,"ha":570,"o":"m 141 0 l 146 37 q 208 44 243 64 l 243 265 l 73 605 q 49 623 11 631 l 16 667 l 263 667 q 259 643 258 631 q 206 624 171 604 l 296 343 l 424 605 q 386 625 335 631 q 336 643 340 667 l 560 667 l 554 631 q 518 624 493 605 l 331 277 l 331 64 q 365 45 433 37 l 429 0 z"},"c":{"x_min":0,"x_max":441,"ha":441,"o":"m 257 476 q 326 476 368 446 q 411 417 411 370 q 411 347 396 329 q 380 311 360 311 q 339 311 325 321 q 311 331 306 347 q 319 368 319 388 q 319 409 302 424 q 285 440 252 440 q 220 440 194 424 q 169 408 156 378 q 135 326 135 258 q 135 190 139 159 q 143 128 155 99 q 179 42 258 42 q 291 42 323 54 q 355 66 370 78 l 385 89 l 411 59 q 404 52 391 41 q 378 30 336 12 q 295 -7 253 -7 q 140 -7 91 54 q 42 116 42 238 q 45 476 257 476 z"},"/":{"x_min":0,"x_max":490,"ha":490,"o":"m 77 -112 l 390 699 l 445 678 l 132 -132 z"},"[":{"x_min":0,"x_max":350,"ha":350,"o":"m 292 -140 l 111 -140 l 111 709 l 292 709 l 292 676 l 179 666 l 179 -96 l 292 -106 z"},"6":{"x_min":0,"x_max":554,"ha":554,"o":"m 163 348 q 227 389 307 389 q 387 389 442 334 q 496 280 496 190 q 496 100 437 45 q 378 -10 278 -10 q 66 -10 66 257 q 66 426 149 531 q 232 636 394 673 l 411 630 q 300 601 240 532 q 179 464 163 348 z m 158 284 q 157 275 157 258 q 157 40 279 40 q 338 40 371 80 q 404 120 404 189 q 404 258 372 296 q 341 333 282 333 q 222 333 158 284 z"},"r":{"x_min":0,"x_max":414,"ha":414,"o":"m 319 476 q 355 476 382 455 q 408 434 408 402 q 408 370 394 351 q 379 332 358 332 q 338 332 323 340 q 308 349 304 363 q 314 373 314 391 q 314 421 286 421 q 258 421 230 380 q 201 340 201 294 l 201 62 q 228 44 280 34 l 276 0 l 46 0 l 50 36 q 91 43 116 62 l 116 347 q 116 384 100 398 q 85 411 46 413 l 49 442 q 62 444 171 476 l 189 467 l 199 397 q 252 476 319 476 z"},"2":{"x_min":0,"x_max":554,"ha":554,"o":"m 486 74 l 486 0 l 71 0 l 71 58 q 239 217 303 313 q 367 409 367 496 q 367 621 264 621 q 217 621 190 598 q 163 575 163 540 q 163 504 184 477 q 162 455 134 455 q 107 455 88 474 q 70 493 70 531 q 70 600 126 636 q 181 671 270 671 q 359 671 410 623 q 460 575 460 487 q 460 399 395 302 q 330 206 176 74 z"},"{":{"x_min":0,"x_max":387,"ha":387,"o":"m 143 18 q 143 39 156 105 q 169 171 169 196 q 169 221 156 239 q 144 257 132 262 l 120 267 l 120 301 q 124 301 134 308 q 145 314 152 322 q 169 342 169 369 q 169 396 156 462 q 143 527 143 549 q 143 616 195 662 q 247 708 317 708 l 317 675 q 269 671 243 637 q 217 603 217 566 q 217 528 226 480 q 235 433 235 404 q 235 323 189 284 q 235 245 235 163 q 235 134 226 86 q 217 39 217 2 q 217 -36 243 -70 q 269 -105 317 -107 l 317 -142 q 247 -142 195 -96 q 143 -49 143 18 z"},"9":{"x_min":0,"x_max":554,"ha":554,"o":"m 390 313 q 326 272 246 272 q 166 272 112 326 q 57 381 57 471 q 57 561 116 616 q 175 671 275 671 q 487 671 487 404 q 487 235 404 130 q 321 25 159 -12 l 142 31 q 253 60 314 128 q 374 197 390 313 z m 395 377 q 396 386 396 403 q 396 621 274 621 q 215 621 182 581 q 149 541 149 472 q 149 403 180 366 q 212 328 272 328 q 331 328 395 377 z"}," ":{"x_min":0,"x_max":220,"ha":220,"o":""},"I":{"x_min":0,"x_max":324,"ha":324,"o":"m 20 0 l 26 37 q 84 44 118 64 l 118 604 q 79 624 20 631 q 24 655 25 667 l 302 667 q 301 655 297 631 q 243 624 206 604 l 206 64 q 239 45 303 37 l 298 0 z"},"H":{"x_min":0,"x_max":687,"ha":687,"o":"m 481 317 l 206 317 l 206 64 q 242 44 304 37 q 300 13 299 0 l 25 0 l 31 37 q 83 44 118 64 l 118 604 q 78 625 25 631 q 29 655 30 667 l 304 667 l 298 631 q 243 624 206 604 l 206 368 l 481 368 l 481 604 q 442 624 383 631 q 387 655 388 667 l 661 667 q 657 643 656 631 q 607 625 569 604 l 569 64 q 603 44 661 37 l 657 0 l 383 0 l 389 37 q 447 44 481 64 z"},"4":{"x_min":0,"x_max":554,"ha":554,"o":"m 330 183 l 42 183 l 35 217 l 317 667 l 418 667 l 418 238 l 513 238 l 513 183 l 418 183 l 418 64 q 449 45 505 37 l 500 0 l 232 0 l 238 37 q 296 44 330 64 z m 330 238 l 330 586 l 114 238 z"},"~":{"x_min":0,"x_max":712,"ha":712,"o":"m 254 342 q 286 342 370 318 q 453 293 480 293 q 530 293 585 333 q 597 326 606 314 q 586 283 551 257 q 516 231 474 231 q 433 231 348 256 q 263 281 230 281 q 180 281 127 241 q 114 248 106 262 q 175 342 254 342 z"},"D":{"x_min":0,"x_max":662,"ha":662,"o":"m 260 667 q 435 667 522 587 q 609 507 609 332 q 609 158 522 79 q 434 0 254 0 l 41 0 l 46 37 q 107 45 137 63 l 137 604 q 102 623 40 631 l 45 667 z m 274 617 l 226 617 l 226 53 q 243 49 271 49 q 391 49 450 114 q 509 178 509 334 q 509 489 451 553 q 393 617 274 617 z"},"^":{"x_min":0,"x_max":554,"ha":554,"o":"m 251 674 l 303 674 l 484 356 l 434 331 l 277 604 l 121 331 l 70 356 z"},"F":{"x_min":0,"x_max":537,"ha":537,"o":"m 490 515 q 477 510 464 510 q 452 510 447 512 q 435 574 400 614 l 217 614 l 217 356 l 330 361 q 369 362 386 429 l 418 429 l 418 231 l 386 231 l 385 237 q 369 302 329 304 l 217 310 l 217 64 q 248 45 314 37 l 310 0 l 31 0 l 37 37 q 104 45 129 64 l 129 604 q 90 624 31 631 q 35 655 36 667 l 482 667 z"},"`":{"x_min":0,"x_max":285,"ha":285,"o":"m 82 607 q 57 629 57 644 q 57 660 68 670 q 79 681 96 681 q 112 681 125 664 l 208 548 l 184 524 z"},"k":{"x_min":0,"x_max":524,"ha":524,"o":"m 94 567 q 94 604 78 618 q 63 631 24 633 l 27 663 q 63 669 160 697 l 179 687 l 179 273 l 316 411 q 342 439 349 467 l 482 467 l 485 437 q 416 434 375 394 l 283 302 l 433 63 q 469 43 525 35 l 521 0 l 378 0 l 225 244 l 179 199 l 179 62 q 204 43 249 35 l 245 0 l 24 0 l 28 37 q 70 43 94 62 z"},"u":{"x_min":0,"x_max":552,"ha":552,"o":"m 254 -7 q 93 -7 93 154 l 93 349 q 93 386 78 400 q 63 413 24 415 l 26 444 q 60 450 159 479 l 179 469 l 179 143 q 179 38 265 38 q 291 38 320 58 q 349 77 371 117 l 371 349 q 371 386 356 400 q 340 413 301 415 l 304 444 q 338 450 437 479 l 456 469 l 456 62 q 478 43 525 35 l 522 0 l 389 0 l 379 63 q 327 -7 254 -7 z"},"]":{"x_min":0,"x_max":350,"ha":350,"o":"m 239 -140 l 58 -140 l 58 -106 l 171 -96 l 171 666 l 58 676 l 58 709 l 239 709 z"},"U":{"x_min":0,"x_max":648,"ha":648,"o":"m 558 216 q 558 109 500 51 q 441 -7 322 -7 q 204 -7 146 45 q 89 97 89 210 l 89 604 q 50 624 -8 631 l -4 667 l 276 667 l 270 631 q 213 621 180 604 l 180 210 q 180 122 216 84 q 253 45 332 45 q 410 45 452 89 q 494 133 494 216 l 494 604 q 457 624 397 631 q 398 643 402 667 l 655 667 l 650 631 q 591 621 558 604 z"},"N":{"x_min":0,"x_max":681,"ha":681,"o":"m 569 0 l 526 0 l 186 515 l 186 64 q 219 45 283 37 l 279 0 l 25 0 l 31 37 q 89 44 123 64 l 123 604 q 84 624 25 631 q 29 655 30 667 l 189 667 l 504 191 l 504 604 q 469 623 408 631 q 409 643 413 667 l 666 667 q 662 643 661 631 q 606 625 569 604 z"},"+":{"x_min":0,"x_max":554,"ha":554,"o":"m 72 259 l 72 312 l 244 312 l 244 490 l 304 490 l 304 312 l 481 312 l 481 259 l 304 259 l 304 82 l 244 82 l 244 259 z"},"G":{"x_min":0,"x_max":611,"ha":611,"o":"m 332 -7 q 185 -7 122 80 q 60 168 60 334 q 60 500 124 588 q 187 676 333 676 q 448 676 510 620 q 544 588 544 548 q 544 509 526 487 q 509 465 487 465 q 465 465 449 476 q 433 487 427 504 q 446 532 446 560 q 446 587 414 604 q 383 622 332 622 q 280 622 244 600 q 209 577 192 534 q 174 491 168 444 q 161 398 161 334 q 161 270 168 224 q 174 177 191 134 q 226 46 332 46 q 403 46 455 83 l 455 258 q 418 274 353 279 l 357 316 l 544 325 l 544 42 q 455 -7 332 -7 z"},"q":{"x_min":0,"x_max":547,"ha":547,"o":"m 249 -7 q 60 -7 60 232 q 60 344 110 410 q 160 476 267 476 q 327 476 379 429 l 395 467 l 448 467 l 448 -151 q 473 -169 518 -178 l 514 -212 l 293 -212 l 297 -176 q 337 -169 363 -151 l 363 59 q 321 -7 249 -7 z m 166 96 q 185 35 250 35 q 314 35 338 91 q 363 147 363 240 l 363 383 q 314 434 270 434 q 226 434 201 416 q 176 399 166 364 q 155 330 152 302 q 150 275 150 231 q 150 187 153 157 q 156 127 166 96 z"},"d":{"x_min":0,"x_max":555,"ha":555,"o":"m 238 -7 q 55 -7 55 224 q 55 347 113 412 q 171 476 281 476 q 324 476 366 459 l 366 567 q 366 604 351 618 q 336 631 297 633 l 299 662 q 333 668 432 697 l 452 687 l 452 61 q 475 43 521 34 l 518 0 l 374 0 l 366 59 q 324 -7 238 -7 z m 247 36 q 366 36 366 224 l 366 414 q 328 434 278 434 q 214 434 178 379 q 143 324 143 226 q 143 127 168 82 q 194 36 247 36 z"},"1":{"x_min":0,"x_max":554,"ha":554,"o":"m 269 572 l 135 572 l 135 615 q 236 624 324 671 l 357 656 l 357 64 q 390 46 482 34 l 479 0 l 131 0 l 133 34 q 222 44 269 64 z"},"5":{"x_min":0,"x_max":554,"ha":554,"o":"m 137 670 q 220 668 304 668 q 388 668 437 669 l 457 655 l 449 596 l 180 596 l 180 384 q 234 405 290 405 q 383 405 439 350 q 495 294 495 201 q 495 108 434 50 q 374 -8 284 -8 q 193 -8 139 28 q 85 65 85 123 q 85 152 100 168 q 116 185 144 185 q 171 185 191 169 q 182 144 182 128 q 182 90 209 66 q 236 43 280 43 q 341 43 374 84 q 408 125 408 198 q 408 272 374 312 q 340 353 278 353 q 215 353 148 313 l 117 346 l 117 656 z"}}}
